<?xml version="1.0" encoding="UTF-8" standalone="no"?>
<svg
   xmlns:dc="http://purl.org/dc/elements/1.1/"
   xmlns:cc="http://creativecommons.org/ns#"
   xmlns:rdf="http://www.w3.org/1999/02/22-rdf-syntax-ns#"
   xmlns:svg="http://www.w3.org/2000/svg"
   xmlns="http://www.w3.org/2000/svg"
   viewBox="0 0 266.66666 245.33333"
   height="245.33333"
   width="266.66666"
   xml:space="preserve"
   id="svg2"
   version="1.1"><metadata
     id="metadata8"><rdf:RDF><cc:Work
         rdf:about=""><dc:format>image/svg+xml</dc:format><dc:type
           rdf:resource="http://purl.org/dc/dcmitype/StillImage" /></cc:Work></rdf:RDF></metadata><defs
     id="defs6"><clipPath
       id="clipPath20"
       clipPathUnits="userSpaceOnUse"><path
         id="path18"
         d="M 0,0 H 1991.53 V 1833.99 H 0 Z" /></clipPath></defs><g
     transform="matrix(1.3333333,0,0,-1.3333333,0,245.33333)"
     id="g10"><g
       transform="scale(0.1)"
       id="g12"><g
         id="g14"><g
           clip-path="url(#clipPath20)"
           id="g16"><path
             id="path22"
             style="fill:none;stroke:#231f20;stroke-width:10;stroke-linecap:butt;stroke-linejoin:round;stroke-miterlimit:10;stroke-dasharray:none;stroke-opacity:1"
             d="m 420.852,1678.6 v -24.01 m -12.004,12.01 h 24 m -11.996,-164.01 v -23.99 m -12.004,12 h 24 m -11.996,-164 v -24.01 m -12.004,12 h 24 M 420.852,1150.6 v -24 m -12.004,12 h 24 M 420.852,798.27 v -24.008 m -12.004,12.008 h 24 M 420.852,622.262 V 598.27 m -12.004,11.992 h 24 M 420.852,446.27 v -24.008 m -12.004,12 h 24 m -11.996,-164 V 246.27 m -12.004,12 h 24 M 1450.85,974.262 v -24 m -12,12 h 24 m -355.34,12 v -24 m -11.99,12 h 23.99 m -355.33,12 v -24 m -12,12 h 24.004 m -698.6684,12 v -24 m -11.9961,12 h 23.9922" /><path
             id="path24"
             style="fill:none;stroke:#231f20;stroke-width:10;stroke-linecap:butt;stroke-linejoin:round;stroke-miterlimit:10;stroke-dasharray:none;stroke-opacity:1"
             d="m 438.184,0.921875 3.332,17.679725 3.328,18 3.34,17.6601 3.664,17.668 3.332,17.6719 3.336,17.0004 3.664,17 3.34,17 3.328,16.328 3.668,16.672 3.336,16 3.328,16 3.336,16 3.668,15.66 3.328,15.34 3.336,15.328 3.668,15 3.328,15 3.34,14.672 3.664,14.328 3.332,14.34 3.336,14.332 3.332,14 3.672,13.668 3.328,13.66 3.332,13.332 3.672,13.34 3.328,13 3.336,12.66 3.668,13 3.328,12.34 3.336,12.328 3.336,12.332 3.66,12.008 3.34,11.66 3.332,11.672 3.664,11.668 3.336,11.332 3.332,11 3.672,11 3.328,11 3.332,10.668 3.34,10.66 3.66,10.332 3.336,10 3.336,10 3.66,10 3.34,9.668 3.332,9.672 3.664,9.32 3.336,9.34 3.332,9 3.332,9.008 3.668,8.992 3.332,8.66 3.332,8.34 3.668,8.34 3.332,8.32 3.34,8.008 3.66,8 3.336,7.672 3.336,7.66 3.328,7.668 3.672,7.332 3.332,7.34 3.328,7 3.672,7 3.332,6.66 3.332,6.668 3.668,6.668 3.332,6.328 3.332,6.34 3.336,6.336 3.664,5.996 3.34,5.996 3.328,5.668 3.668,5.664 3.336,5.672 3.328,5.332 3.672,5.332 3.332,5 3.328,5 3.34,5 3.664,4.668 3.332,5 3.336,4.336 3.664,4.66 3.332,4.336 m 0,0 3.336,4 3.664,4.336 3.34,4.004 3.328,3.664 3.332,3.996 3.672,3.668 3.328,3.332 3.336,3.672 3.668,3.328 3.328,3.332 3.336,3 3.668,3.004 3.328,3 3.34,2.996 3.332,2.668 3.664,2.664 3.336,2.668 3.332,2.332 3.672,2.336 3.328,2.332 3.332,2.336 3.672,2 3.328,2 3.336,2 3.336,1.66 3.66,2.01 3.336,1.67 3.336,1.32 3.66,1.68 3.34,1.32 3.332,1.34 3.664,1.33 3.336,1.01 3.332,1.32 3.332,1.01 3.668,0.66 3.332,1.01 3.34,0.66 3.66,1 3.336,0.66 3.336,0.34 3.66,0.67 3.336,0.33 3.336,0.33 3.328,0.33 3.672,0.34 h 3.332 l 3.328,0.34 h 3.672 3.332 3.332 l 3.668,-0.34 h 3.332 l 3.34,-0.34 3.328,-0.33 3.668,-0.33 3.336,-0.33 3.328,-0.67 3.668,-0.34 3.336,-0.66 3.328,-0.66 3.672,-0.67 3.332,-0.67 3.328,-0.67 3.336,-0.99 3.668,-0.68 3.328,-0.99 3.34,-1.01 3.664,-1 3.34,-0.99 3.328,-1.01 3.664,-0.99 3.34,-1.34 3.328,-1 3.332,-1.33 3.668,-1.33 3.33,-1.01 3.34,-1.33 3.66,-1.33 3.34,-1.33 3.32,-1.34 3.68,-1.66 3.33,-1.34 3.34,-1.33 3.33,-1.668 3.67,-1.328 3.33,-1.668 3.33,-1.672 3.67,-1.66 3.33,-1.336 3.33,-1.672 3.34,-1.66 3.66,-1.668 3.34,-1.672 3.33,-1.66 3.67,-1.668 3.32,-1.672 3.34,-1.66 3.67,-2 m 0,0 3.34,-1.672 3.33,-1.66 3.67,-1.668 3.33,-1.672 3.33,-2 3.34,-1.66 3.66,-1.672 3.33,-2 3.34,-1.66 3.66,-1.672 3.34,-1.668 3.33,-2 3.67,-1.664 3.32,-1.668 3.34,-1.668 3.34,-1.664 3.67,-2 3.33,-1.672 3.33,-1.66 3.67,-1.668 3.33,-1.672 3.34,-1.66 3.66,-1.668 3.33,-1.672 3.34,-1.66 3.33,-1.336 3.67,-1.668 3.33,-1.664 3.33,-1.668 3.66,-1.328 3.34,-1.672 3.34,-1.328 3.67,-1.336 3.33,-1.672 3.33,-1.328 3.34,-1.336 3.66,-1.328 3.34,-1.34 3.33,-0.996 3.66,-1.336 3.34,-1.328 3.33,-1.008 3.67,-1.328 3.33,-1.004 3.33,-0.996 3.34,-1.004 3.66,-1 3.34,-0.996 3.32,-1.004 3.68,-0.664 3.33,-0.996 3.34,-0.676 3.66,-0.664 3.34,-0.664 3.33,-0.672 3.33,-0.664 3.67,-0.332 3.33,-0.664 3.33,-0.34 3.67,-0.324 3.33,-0.34 3.34,-0.336 h 3.66 l 3.34,-0.332 h 3.32 3.34 3.67 l 3.34,0.332 h 3.33 l 3.67,0.336 3.33,0.34 3.33,0.324 3.67,0.34 3.33,0.664 3.33,0.332 3.34,0.664 3.66,1.004 3.34,0.664 3.33,1.008 3.67,0.664 3.32,0.996 3.34,1.336 3.67,0.996 3.34,1.332 3.33,1.336 3.33,1.336 3.67,1.664 3.33,1.336 3.34,1.668 3.66,1.996 3.33,1.668 3.34,2 3.66,1.996 3.34,2 3.33,2.336 3.33,2.34 3.66,2.324 3.34,2.336 3.34,2.664 m 0,0 3.67,2.676 3.33,2.66 3.33,3.004 3.67,3 3.33,2.996 3.34,3 3.33,3.34 3.66,3.328 3.34,3.332 3.33,3.672 3.67,3.66 3.33,4.004 3.33,3.664 3.66,4.004 3.34,4.328 3.34,4 3.32,4.336 3.68,4.668 3.33,4.332 3.34,5 3.66,4.66 3.34,5 3.33,5 3.66,5 3.34,5.34 3.33,5.34 3.33,5.66 3.67,5.66 3.33,5.68 3.34,6 3.66,5.99 3.34,6.34 3.32,6.33 3.68,6.34 3.33,6.66 3.34,6.66 3.33,6.68 3.67,7 3.33,7 3.33,7.32 3.67,7.34 3.33,7.66 3.33,7.68 3.67,7.66 3.33,8 3.34,8 3.33,8.33 3.67,8.34 3.32,8.33 3.34,8.66 3.67,9.01 3.34,9 3.33,8.99 3.67,9.34 3.33,9.34 3.33,9.66 3.34,9.66 3.66,10 3.33,10 3.34,10 3.66,10.34 3.34,10.67 3.33,10.66 3.67,11.01 3.32,11 3.34,10.99 3.34,11.34 3.67,11.67 3.33,11.66 3.33,11.67 3.67,12 3.33,12.33 3.34,12.34 3.66,12.33 3.33,13 3.34,12.67 3.33,13 3.67,13.32 3.33,13.34 3.33,13.67 3.66,13.67 3.34,13.99 3.34,14.34 3.67,14.33 3.33,14.33 3.33,14.67 3.34,15 3.66,15 3.34,15.33 3.33,15.34 3.66,15.67 3.34,15.99 3.33,16.01 3.67,16 3.33,16.66 3.33,16.33 3.34,16.67 3.66,17 2.01,11.33 M 420.852,258.27 V 1666.6 M 77.5156,962.262 H 1862.85" /><path
             id="path26"
             style="fill:#231f20;fill-opacity:1;fill-rule:nonzero;stroke:none"
             d="m 1833.7,964.859 -21.91,36.031 1.23,0.81 58.75,-23.337 c 20.47,-4.492 40.94,-9.004 61.4,-13.504 -20.46,-4.504 -40.93,-9.004 -61.4,-13.507 l -58.75,-23.34 -1.23,0.617 21.91,36.23" /><path
             id="path28"
             style="fill:#231f20;fill-opacity:1;fill-rule:nonzero;stroke:none"
             d="m 421.035,1672.81 -36.031,-21.91 -0.816,1.24 23.335,58.75 c 4.504,20.46 9.004,40.94 13.512,61.41 4.5,-20.47 9.004,-40.95 13.512,-61.41 l 23.336,-58.75 -0.617,-1.24 -36.231,21.91" /><g
             transform="scale(10)"
             id="g30"><text
               id="text52"
               style="font-variant:normal;font-weight:normal;font-size:12px;font-family:CMR9;-inkscape-font-specification:CMR9;writing-mode:lr-tb;fill:#231f20;fill-opacity:1;fill-rule:nonzero;stroke:none"
               transform="matrix(1,0,0,-1,32.302,147.301)"><tspan
                 id="tspan32"
                 y="0"
                 x="0">3</tspan><tspan
                 id="tspan34"
                 y="18.585899"
                 x="-0.180859">2</tspan><tspan
                 id="tspan36"
                 y="36.5"
                 x="0">1</tspan><tspan
                 id="tspan38"
                 y="72"
                 x="-3.5 0.60399997">-1</tspan><tspan
                 id="tspan40"
                 y="90.103104"
                 x="-3.8964839 0.207516">-2</tspan><tspan
                 id="tspan42"
                 y="108"
                 x="-4.2074218 -0.103422">-3</tspan><tspan
                 id="tspan44"
                 y="62.594501"
                 x="42.517178">1</tspan><tspan
                 id="tspan46"
                 y="62.292545"
                 x="74.999977">2</tspan><tspan
                 id="tspan48"
                 y="61.914032"
                 x="111.43118">3</tspan><tspan
                 id="tspan50"
                 y="61.594501"
                 x="-32.301823 -28.197823">-1</tspan></text>
<text
               id="text58"
               style="font-variant:normal;font-weight:normal;font-size:12px;font-family:CMMI10;-inkscape-font-specification:CMMI10;writing-mode:lr-tb;fill:#231f20;fill-opacity:1;fill-rule:nonzero;stroke:none"
               transform="matrix(1,0,0,-1,27.302178,173.301)"><tspan
                 id="tspan54"
                 y="0"
                 x="0">y</tspan><tspan
                 id="tspan56"
                 y="87.5"
                 x="165">x</tspan></text>
</g></g></g></g></g></svg>