<?xml version="1.0" encoding="UTF-8" standalone="no"?>
<svg
   xmlns:dc="http://purl.org/dc/elements/1.1/"
   xmlns:cc="http://creativecommons.org/ns#"
   xmlns:rdf="http://www.w3.org/1999/02/22-rdf-syntax-ns#"
   xmlns:svg="http://www.w3.org/2000/svg"
   xmlns="http://www.w3.org/2000/svg"
   viewBox="0 0 201.33333 118.66667"
   height="118.66667"
   width="201.33333"
   xml:space="preserve"
   id="svg2"
   version="1.1"><metadata
     id="metadata8"><rdf:RDF><cc:Work
         rdf:about=""><dc:format>image/svg+xml</dc:format><dc:type
           rdf:resource="http://purl.org/dc/dcmitype/StillImage" /></cc:Work></rdf:RDF></metadata><defs
     id="defs6"><clipPath
       id="clipPath20"
       clipPathUnits="userSpaceOnUse"><path
         id="path18"
         d="M 0,0 H 1507.72 V 888.285 H 0 Z" /></clipPath></defs><g
     transform="matrix(1.3333333,0,0,-1.3333333,0,118.66667)"
     id="g10"><g
       transform="scale(0.1)"
       id="g12"><g
         id="g14"><g
           clip-path="url(#clipPath20)"
           id="g16"><path
             id="path22"
             style="fill:#e0dfe0;fill-opacity:1;fill-rule:nonzero;stroke:none"
             d="m 786.051,683.566 -87.5,-25 -105,-45 -80,-55 -90,-60 -87.5,-77.5 -107.5,-70 -97.5,-32.5 -42.5002,-10 -2.5,-214.9996 H 933.551 l -2.5,602.4996 -65,-0.05" /><path
             id="path24"
             style="fill:none;stroke:#231f20;stroke-width:10;stroke-linecap:butt;stroke-linejoin:round;stroke-miterlimit:10;stroke-dasharray:none;stroke-opacity:1"
             d="M 19.043,91.7461 H 1358.05" /><path
             id="path26"
             style="fill:#231f20;fill-opacity:1;fill-rule:nonzero;stroke:none"
             d="m 1351.91,91.7461 -13.12,21.6209 0.72,0.492 35.26,-14.0035 c 12.28,-2.6953 24.57,-5.3907 36.85,-8.1094 -12.28,-2.6914 -24.57,-5.3867 -36.85,-8.1016 l -35.26,-14.0039 -0.72,0.3711 13.12,21.7344" /><path
             id="path28"
             style="fill:none;stroke:#231f20;stroke-width:10;stroke-linecap:butt;stroke-linejoin:round;stroke-miterlimit:10;stroke-dasharray:none;stroke-opacity:1"
             d="M 87.707,31.0664 V 759.016" /><path
             id="path30"
             style="fill:#231f20;fill-opacity:1;fill-rule:nonzero;stroke:none"
             d="m 88.0977,741.422 -21.6172,-13.145 -0.4922,0.739 14.0039,35.246 c 2.6992,12.281 5.3984,24.566 8.1055,36.847 2.6992,-12.281 5.3984,-24.566 8.1054,-36.847 l 14.0039,-35.246 -0.371,-0.739 -21.7383,13.145" /><g
             transform="scale(10)"
             id="g32"><text
               id="text36"
               style="font-variant:normal;font-weight:normal;font-size:9.9630003px;font-family:CMMI10;-inkscape-font-specification:CMMI10;writing-mode:lr-tb;fill:#231f20;fill-opacity:1;fill-rule:nonzero;stroke:none"
               transform="matrix(1,0,0,-1,141.744,6.62422)"><tspan
                 id="tspan34"
                 y="0"
                 x="0">x</tspan></text>
</g><path
             id="path38"
             style="fill:none;stroke:#231f20;stroke-width:10;stroke-linecap:butt;stroke-linejoin:miter;stroke-miterlimit:4;stroke-dasharray:none;stroke-opacity:1"
             d="m 1.05078,318.566 c 0,0 165.00022,-45 352.50022,122.5 187.5,167.5 370,250 540,255 169.999,5 244.999,52.5 314.999,85" /><path
             id="path40"
             style="fill:none;stroke:#231f20;stroke-width:10;stroke-linecap:butt;stroke-linejoin:miter;stroke-miterlimit:4;stroke-dasharray:none;stroke-opacity:1"
             d="M 933.551,693.566 V 96.0664" /><g
             transform="scale(10)"
             id="g42"><text
               id="text48"
               style="font-variant:normal;font-weight:normal;font-size:9.9630003px;font-family:CMMI10;-inkscape-font-specification:CMMI10;writing-mode:lr-tb;fill:#231f20;fill-opacity:1;fill-rule:nonzero;stroke:none"
               transform="matrix(1,0,0,-1,90.0113,2.49141)"><tspan
                 id="tspan44"
                 y="0"
                 x="0">x</tspan><tspan
                 id="tspan46"
                 y="-26.6152"
                 x="-43.195301">A</tspan></text>
<text
               id="text52"
               style="font-variant:normal;font-weight:normal;font-size:9.9630003px;font-family:CMR10;-inkscape-font-specification:CMR10;writing-mode:lr-tb;fill:#231f20;fill-opacity:1;fill-rule:nonzero;stroke:none"
               transform="matrix(1,0,0,-1,54.28748,29.10661)"><tspan
                 id="tspan50"
                 y="0"
                 x="0">(</tspan></text>
<text
               id="text56"
               style="font-variant:normal;font-weight:normal;font-size:9.9630003px;font-family:CMMI10;-inkscape-font-specification:CMMI10;writing-mode:lr-tb;fill:#231f20;fill-opacity:1;fill-rule:nonzero;stroke:none"
               transform="matrix(1,0,0,-1,58.1617,29.10661)"><tspan
                 id="tspan54"
                 y="0"
                 x="0">x</tspan></text>
<text
               id="text60"
               style="font-variant:normal;font-weight:normal;font-size:9.9630003px;font-family:CMR10;-inkscape-font-specification:CMR10;writing-mode:lr-tb;fill:#231f20;fill-opacity:1;fill-rule:nonzero;stroke:none"
               transform="matrix(1,0,0,-1,63.85506,29.10661)"><tspan
                 id="tspan58"
                 y="0"
                 x="0">)</tspan></text>
<text
               id="text64"
               style="font-variant:normal;font-weight:normal;font-size:9.9630003px;font-family:CMMI10;-inkscape-font-specification:CMMI10;writing-mode:lr-tb;fill:#231f20;fill-opacity:1;fill-rule:nonzero;stroke:none"
               transform="matrix(1,0,0,-1,86.81206,81.35661)"><tspan
                 id="tspan62"
                 y="0"
                 x="0">y</tspan></text>
<text
               id="text68"
               style="font-variant:normal;font-weight:normal;font-size:9.9630003px;font-family:CMR10;-inkscape-font-specification:CMR10;writing-mode:lr-tb;fill:#231f20;fill-opacity:1;fill-rule:nonzero;stroke:none"
               transform="matrix(1,0,0,-1,94.81987,81.35661)"><tspan
                 id="tspan66"
                 y="0"
                 x="0">=</tspan></text>
<text
               id="text72"
               style="font-variant:normal;font-weight:normal;font-size:9.9630003px;font-family:CMMI10;-inkscape-font-specification:CMMI10;writing-mode:lr-tb;fill:#231f20;fill-opacity:1;fill-rule:nonzero;stroke:none"
               transform="matrix(1,0,0,-1,105.33587,81.35661)"><tspan
                 id="tspan70"
                 y="0"
                 x="0">f</tspan></text>
<text
               id="text76"
               style="font-variant:normal;font-weight:normal;font-size:9.9630003px;font-family:CMR10;-inkscape-font-specification:CMR10;writing-mode:lr-tb;fill:#231f20;fill-opacity:1;fill-rule:nonzero;stroke:none"
               transform="matrix(1,0,0,-1,111.28704,81.35661)"><tspan
                 id="tspan74"
                 y="0"
                 x="0">(</tspan></text>
<text
               id="text80"
               style="font-variant:normal;font-weight:normal;font-size:9.9630003px;font-family:CMMI10;-inkscape-font-specification:CMMI10;writing-mode:lr-tb;fill:#231f20;fill-opacity:1;fill-rule:nonzero;stroke:none"
               transform="matrix(1,0,0,-1,115.16204,81.35661)"><tspan
                 id="tspan78"
                 y="0"
                 x="0">x</tspan></text>
<text
               id="text84"
               style="font-variant:normal;font-weight:normal;font-size:9.9630003px;font-family:CMR10;-inkscape-font-specification:CMR10;writing-mode:lr-tb;fill:#231f20;fill-opacity:1;fill-rule:nonzero;stroke:none"
               transform="matrix(1,0,0,-1,120.85501,81.35661)"><tspan
                 id="tspan82"
                 y="0"
                 x="0">)</tspan></text>
<text
               id="text88"
               style="font-variant:normal;font-weight:normal;font-size:9.9630003px;font-family:CMMI10;-inkscape-font-specification:CMMI10;writing-mode:lr-tb;fill:#231f20;fill-opacity:1;fill-rule:nonzero;stroke:none"
               transform="matrix(1,0,0,-1,0.41401,74.74138)"><tspan
                 id="tspan86"
                 y="0"
                 x="0">y</tspan></text>
</g></g></g></g></g></svg>