<?xml version="1.0" encoding="UTF-8" standalone="no"?>
<svg
   xmlns:dc="http://purl.org/dc/elements/1.1/"
   xmlns:cc="http://creativecommons.org/ns#"
   xmlns:rdf="http://www.w3.org/1999/02/22-rdf-syntax-ns#"
   xmlns:svg="http://www.w3.org/2000/svg"
   xmlns="http://www.w3.org/2000/svg"
   viewBox="0 0 121.33333 97.333336"
   height="97.333336"
   width="121.33333"
   xml:space="preserve"
   id="svg2"
   version="1.1"><metadata
     id="metadata8"><rdf:RDF><cc:Work
         rdf:about=""><dc:format>image/svg+xml</dc:format><dc:type
           rdf:resource="http://purl.org/dc/dcmitype/StillImage" /></cc:Work></rdf:RDF></metadata><defs
     id="defs6"><clipPath
       id="clipPath20"
       clipPathUnits="userSpaceOnUse"><path
         id="path18"
         d="M 0,0 H 900.391 V 727.406 H 0 Z" /></clipPath></defs><g
     transform="matrix(1.3333333,0,0,-1.3333333,0,97.333333)"
     id="g10"><g
       transform="scale(0.1)"
       id="g12"><g
         id="g14"><g
           clip-path="url(#clipPath20)"
           id="g16"><path
             id="path22"
             style="fill:#ffffff;fill-opacity:1;fill-rule:nonzero;stroke:none"
             d="m 900.352,143.988 -779.5,-5.379 541.589,506.524" /><path
             id="path24"
             style="fill:none;stroke:#231f20;stroke-width:10;stroke-linecap:butt;stroke-linejoin:miter;stroke-miterlimit:4;stroke-dasharray:none;stroke-opacity:1"
             d="m 900.352,143.988 -779.5,-5.379 541.589,506.524" /><path
             id="path26"
             style="fill:#231f20;fill-opacity:1;fill-rule:nonzero;stroke:none"
             d="m 409.301,408.355 -24.363,6.805 0.199,0.86 35.312,13.859 c 10.817,6.414 21.637,12.832 32.453,19.246 -7.129,-10.359 -14.257,-20.723 -21.379,-31.094 l -16.179,-34.304 -0.793,-0.227 -5.25,24.855" /><path
             id="path28"
             style="fill:#231f20;fill-opacity:1;fill-rule:nonzero;stroke:none"
             d="m 720.746,144.125 -11.953,22.297 0.754,0.449 34.457,-15.891 c 12.109,-3.359 24.23,-6.718 36.348,-10.085 -12.403,-2.032 -24.825,-4.055 -37.227,-6.106 l -35.961,-12.078 -0.715,0.418 14.297,20.996" /><path
             id="path30"
             style="fill:none;stroke:#231f20;stroke-width:10;stroke-linecap:butt;stroke-linejoin:miter;stroke-miterlimit:4;stroke-dasharray:none;stroke-opacity:1"
             d="m 324.777,144.625 c -2.531,48.203 -22.843,94.57 -57.066,130.008" /><path
             id="path32"
             style="fill:#ffffff;fill-opacity:1;fill-rule:nonzero;stroke:none"
             d="m 662.207,646.879 v -500" /><path
             id="path34"
             style="fill:none;stroke:#231f20;stroke-width:5;stroke-linecap:butt;stroke-linejoin:miter;stroke-miterlimit:4;stroke-dasharray:10, 10;stroke-dashoffset:0;stroke-opacity:1"
             d="m 662.207,646.879 v -500" /><path
             id="path36"
             style="fill:none;stroke:#231f20;stroke-width:6;stroke-linecap:butt;stroke-linejoin:miter;stroke-miterlimit:4;stroke-dasharray:none;stroke-opacity:1"
             d="M 128.883,111.879 H 652.621" /><path
             id="path38"
             style="fill:#231f20;fill-opacity:1;fill-rule:nonzero;stroke:none"
             d="m 642.766,111.879 -4.602,7.57 0.258,0.164 12.34,-4.894 c 4.297,-0.946 8.597,-1.891 12.894,-2.84 -4.297,-0.945 -8.597,-1.891 -12.894,-2.836 l -12.34,-4.898 -0.258,0.128 4.602,7.606" /><path
             id="path40"
             style="fill:#231f20;fill-opacity:1;fill-rule:nonzero;stroke:none"
             d="m 131.027,111.879 4.598,-7.566 -0.258,-0.168 -12.34,4.898 c -4.297,0.941 -8.593,1.891 -12.894,2.836 4.301,0.949 8.597,1.891 12.894,2.84 l 12.34,4.894 0.258,-0.125 -4.598,-7.609" /><g
             transform="scale(10)"
             id="g42"><text
               id="text48"
               style="font-variant:normal;font-weight:normal;font-size:9.9630003px;font-family:CMBX10;-inkscape-font-specification:CMBX10;writing-mode:lr-tb;fill:#231f20;fill-opacity:1;fill-rule:nonzero;stroke:none"
               transform="matrix(1,0,0,-1,77.2246,7.82344)"><tspan
                 id="tspan44"
                 y="0"
                 x="0">a</tspan><tspan
                 id="tspan46"
                 y="-33.082401"
                 x="-47.001598">b</tspan></text>
<text
               id="text54"
               style="font-variant:normal;font-weight:normal;font-size:9.9630003px;font-family:CMMI10;-inkscape-font-specification:CMMI10;writing-mode:lr-tb;fill:#231f20;fill-opacity:1;fill-rule:nonzero;stroke:none"
               transform="matrix(1,0,0,-1,34.35073,19.90584)"><tspan
                 id="tspan50"
                 y="0"
                 x="0">θ</tspan><tspan
                 id="tspan52"
                 y="17.415199"
                 x="0.232813">ℓ</tspan></text>
</g><path
             id="path56"
             style="fill:none;stroke:#231f20;stroke-width:7;stroke-linecap:butt;stroke-linejoin:miter;stroke-miterlimit:4;stroke-dasharray:none;stroke-opacity:1"
             d="m 658.508,205.406 h -55 v -57.5" /><g
             transform="scale(10)"
             id="g58"><text
               id="text66"
               style="font-variant:normal;font-weight:normal;font-size:9px;font-family:CMR10;-inkscape-font-specification:CMR10;writing-mode:lr-tb;fill:#231f20;fill-opacity:1;fill-rule:nonzero;stroke:none"
               transform="matrix(1,0,0,-1,0,10.9906)"><tspan
                 id="tspan60"
                 y="0"
                 x="0">O</tspan><tspan
                 id="tspan62"
                 y="-55"
                 x="63.25">B</tspan><tspan
                 id="tspan64"
                 y="7.5"
                 x="63.5">A</tspan></text>
</g></g></g></g></g></svg>